<mxfile host="app.diagrams.net" modified="2024-05-14T00:37:19.168Z" agent="Mozilla/5.0 (Windows NT 10.0; Win64; x64) AppleWebKit/537.36 (KHTML, like Gecko) Chrome/124.0.0.0 Safari/537.36" etag="ht_hljA7mI56TfBb_OLn" version="24.4.0" type="device">
  <diagram id="C5RBs43oDa-KdzZeNtuy" name="Page-1">
    <mxGraphModel dx="2745" dy="1398" grid="1" gridSize="10" guides="1" tooltips="1" connect="1" arrows="1" fold="1" page="1" pageScale="1" pageWidth="827" pageHeight="1169" math="0" shadow="0">
      <root>
        <mxCell id="WIyWlLk6GJQsqaUBKTNV-0" />
        <mxCell id="WIyWlLk6GJQsqaUBKTNV-1" parent="WIyWlLk6GJQsqaUBKTNV-0" />
        <mxCell id="NfwS4gf-bSEiMEtEzb1n-26" value="Subscription" style="shape=table;startSize=30;container=1;collapsible=0;childLayout=tableLayout;strokeColor=#6c8ebf;fontSize=19;strokeWidth=2;fillColor=#dae8fc;" vertex="1" parent="WIyWlLk6GJQsqaUBKTNV-1">
          <mxGeometry x="20" y="270" width="1181" height="70" as="geometry" />
        </mxCell>
        <mxCell id="NfwS4gf-bSEiMEtEzb1n-27" value="" style="shape=tableRow;horizontal=0;startSize=0;swimlaneHead=0;swimlaneBody=0;strokeColor=inherit;top=0;left=0;bottom=0;right=0;collapsible=0;dropTarget=0;fillColor=none;points=[[0,0.5],[1,0.5]];portConstraint=eastwest;fontSize=19;strokeWidth=2;" vertex="1" parent="NfwS4gf-bSEiMEtEzb1n-26">
          <mxGeometry y="30" width="1181" height="40" as="geometry" />
        </mxCell>
        <mxCell id="NfwS4gf-bSEiMEtEzb1n-28" value="&lt;u style=&quot;font-size: 19px;&quot;&gt;subscription_id&lt;/u&gt;" style="shape=partialRectangle;html=1;whiteSpace=wrap;connectable=0;strokeColor=inherit;overflow=hidden;fillColor=none;top=0;left=0;bottom=0;right=0;pointerEvents=1;fontSize=19;strokeWidth=2;" vertex="1" parent="NfwS4gf-bSEiMEtEzb1n-27">
          <mxGeometry width="197" height="40" as="geometry">
            <mxRectangle width="197" height="40" as="alternateBounds" />
          </mxGeometry>
        </mxCell>
        <mxCell id="NfwS4gf-bSEiMEtEzb1n-29" value="subscripition_start&amp;nbsp;" style="shape=partialRectangle;html=1;whiteSpace=wrap;connectable=0;strokeColor=inherit;overflow=hidden;fillColor=none;top=0;left=0;bottom=0;right=0;pointerEvents=1;fontSize=19;strokeWidth=2;" vertex="1" parent="NfwS4gf-bSEiMEtEzb1n-27">
          <mxGeometry x="197" width="196" height="40" as="geometry">
            <mxRectangle width="196" height="40" as="alternateBounds" />
          </mxGeometry>
        </mxCell>
        <mxCell id="NfwS4gf-bSEiMEtEzb1n-30" value="subscription_rate" style="shape=partialRectangle;html=1;whiteSpace=wrap;connectable=0;strokeColor=inherit;overflow=hidden;fillColor=none;top=0;left=0;bottom=0;right=0;pointerEvents=1;fontSize=19;strokeWidth=2;" vertex="1" parent="NfwS4gf-bSEiMEtEzb1n-27">
          <mxGeometry x="393" width="197" height="40" as="geometry">
            <mxRectangle width="197" height="40" as="alternateBounds" />
          </mxGeometry>
        </mxCell>
        <mxCell id="NfwS4gf-bSEiMEtEzb1n-74" value="basic" style="shape=partialRectangle;html=1;whiteSpace=wrap;connectable=0;strokeColor=inherit;overflow=hidden;fillColor=none;top=0;left=0;bottom=0;right=0;pointerEvents=1;fontSize=19;strokeWidth=2;" vertex="1" parent="NfwS4gf-bSEiMEtEzb1n-27">
          <mxGeometry x="590" width="197" height="40" as="geometry">
            <mxRectangle width="197" height="40" as="alternateBounds" />
          </mxGeometry>
        </mxCell>
        <mxCell id="NfwS4gf-bSEiMEtEzb1n-75" value="standard" style="shape=partialRectangle;html=1;whiteSpace=wrap;connectable=0;strokeColor=inherit;overflow=hidden;fillColor=none;top=0;left=0;bottom=0;right=0;pointerEvents=1;fontSize=19;strokeWidth=2;" vertex="1" parent="NfwS4gf-bSEiMEtEzb1n-27">
          <mxGeometry x="787" width="197" height="40" as="geometry">
            <mxRectangle width="197" height="40" as="alternateBounds" />
          </mxGeometry>
        </mxCell>
        <mxCell id="NfwS4gf-bSEiMEtEzb1n-76" value="premium" style="shape=partialRectangle;html=1;whiteSpace=wrap;connectable=0;strokeColor=inherit;overflow=hidden;fillColor=none;top=0;left=0;bottom=0;right=0;pointerEvents=1;fontSize=19;strokeWidth=2;" vertex="1" parent="NfwS4gf-bSEiMEtEzb1n-27">
          <mxGeometry x="984" width="197" height="40" as="geometry">
            <mxRectangle width="197" height="40" as="alternateBounds" />
          </mxGeometry>
        </mxCell>
        <mxCell id="NfwS4gf-bSEiMEtEzb1n-44" value="Credits" style="shape=table;startSize=30;container=1;collapsible=0;childLayout=tableLayout;strokeColor=#6c8ebf;fontSize=19;strokeWidth=2;fillColor=#dae8fc;" vertex="1" parent="WIyWlLk6GJQsqaUBKTNV-1">
          <mxGeometry x="20" y="1140" width="287" height="70" as="geometry" />
        </mxCell>
        <mxCell id="NfwS4gf-bSEiMEtEzb1n-45" value="" style="shape=tableRow;horizontal=0;startSize=0;swimlaneHead=0;swimlaneBody=0;strokeColor=inherit;top=0;left=0;bottom=0;right=0;collapsible=0;dropTarget=0;fillColor=none;points=[[0,0.5],[1,0.5]];portConstraint=eastwest;fontSize=19;strokeWidth=2;" vertex="1" parent="NfwS4gf-bSEiMEtEzb1n-44">
          <mxGeometry y="30" width="287" height="40" as="geometry" />
        </mxCell>
        <mxCell id="NfwS4gf-bSEiMEtEzb1n-46" value="&lt;u style=&quot;font-size: 19px;&quot;&gt;credti_id&lt;/u&gt;" style="shape=partialRectangle;html=1;whiteSpace=wrap;connectable=0;strokeColor=inherit;overflow=hidden;fillColor=none;top=0;left=0;bottom=0;right=0;pointerEvents=1;fontSize=19;strokeWidth=2;" vertex="1" parent="NfwS4gf-bSEiMEtEzb1n-45">
          <mxGeometry width="143" height="40" as="geometry">
            <mxRectangle width="143" height="40" as="alternateBounds" />
          </mxGeometry>
        </mxCell>
        <mxCell id="NfwS4gf-bSEiMEtEzb1n-47" value="&lt;u style=&quot;font-size: 19px;&quot;&gt;title_id&lt;/u&gt;" style="shape=partialRectangle;html=1;whiteSpace=wrap;connectable=0;strokeColor=inherit;overflow=hidden;fillColor=none;top=0;left=0;bottom=0;right=0;pointerEvents=1;fontSize=19;strokeWidth=2;" vertex="1" parent="NfwS4gf-bSEiMEtEzb1n-45">
          <mxGeometry x="143" width="144" height="40" as="geometry">
            <mxRectangle width="144" height="40" as="alternateBounds" />
          </mxGeometry>
        </mxCell>
        <mxCell id="NfwS4gf-bSEiMEtEzb1n-49" value="Review" style="shape=table;startSize=30;container=1;collapsible=0;childLayout=tableLayout;strokeColor=#6c8ebf;fontSize=19;strokeWidth=2;fillColor=#dae8fc;" vertex="1" parent="WIyWlLk6GJQsqaUBKTNV-1">
          <mxGeometry x="20" y="980" width="1000" height="70" as="geometry" />
        </mxCell>
        <mxCell id="NfwS4gf-bSEiMEtEzb1n-50" value="" style="shape=tableRow;horizontal=0;startSize=0;swimlaneHead=0;swimlaneBody=0;strokeColor=inherit;top=0;left=0;bottom=0;right=0;collapsible=0;dropTarget=0;fillColor=none;points=[[0,0.5],[1,0.5]];portConstraint=eastwest;fontSize=19;strokeWidth=2;" vertex="1" parent="NfwS4gf-bSEiMEtEzb1n-49">
          <mxGeometry y="30" width="1000" height="40" as="geometry" />
        </mxCell>
        <mxCell id="NfwS4gf-bSEiMEtEzb1n-51" value="&lt;u style=&quot;font-size: 19px;&quot;&gt;review_id&lt;/u&gt;" style="shape=partialRectangle;html=1;whiteSpace=wrap;connectable=0;strokeColor=inherit;overflow=hidden;fillColor=none;top=0;left=0;bottom=0;right=0;pointerEvents=1;fontSize=19;strokeWidth=2;" vertex="1" parent="NfwS4gf-bSEiMEtEzb1n-50">
          <mxGeometry width="167" height="40" as="geometry">
            <mxRectangle width="167" height="40" as="alternateBounds" />
          </mxGeometry>
        </mxCell>
        <mxCell id="NfwS4gf-bSEiMEtEzb1n-52" value="text" style="shape=partialRectangle;html=1;whiteSpace=wrap;connectable=0;strokeColor=inherit;overflow=hidden;fillColor=none;top=0;left=0;bottom=0;right=0;pointerEvents=1;fontSize=19;strokeWidth=2;" vertex="1" parent="NfwS4gf-bSEiMEtEzb1n-50">
          <mxGeometry x="167" width="166" height="40" as="geometry">
            <mxRectangle width="166" height="40" as="alternateBounds" />
          </mxGeometry>
        </mxCell>
        <mxCell id="NfwS4gf-bSEiMEtEzb1n-53" value="timestamp" style="shape=partialRectangle;html=1;whiteSpace=wrap;connectable=0;strokeColor=inherit;overflow=hidden;fillColor=none;top=0;left=0;bottom=0;right=0;pointerEvents=1;fontSize=19;strokeWidth=2;" vertex="1" parent="NfwS4gf-bSEiMEtEzb1n-50">
          <mxGeometry x="333" width="167" height="40" as="geometry">
            <mxRectangle width="167" height="40" as="alternateBounds" />
          </mxGeometry>
        </mxCell>
        <mxCell id="NfwS4gf-bSEiMEtEzb1n-91" value="rating" style="shape=partialRectangle;html=1;whiteSpace=wrap;connectable=0;strokeColor=inherit;overflow=hidden;fillColor=none;top=0;left=0;bottom=0;right=0;pointerEvents=1;fontSize=19;strokeWidth=2;" vertex="1" parent="NfwS4gf-bSEiMEtEzb1n-50">
          <mxGeometry x="500" width="167" height="40" as="geometry">
            <mxRectangle width="167" height="40" as="alternateBounds" />
          </mxGeometry>
        </mxCell>
        <mxCell id="NfwS4gf-bSEiMEtEzb1n-92" value="profile_id" style="shape=partialRectangle;html=1;whiteSpace=wrap;connectable=0;strokeColor=inherit;overflow=hidden;fillColor=none;top=0;left=0;bottom=0;right=0;pointerEvents=1;fontSize=19;strokeWidth=2;" vertex="1" parent="NfwS4gf-bSEiMEtEzb1n-50">
          <mxGeometry x="667" width="166" height="40" as="geometry">
            <mxRectangle width="166" height="40" as="alternateBounds" />
          </mxGeometry>
        </mxCell>
        <mxCell id="NfwS4gf-bSEiMEtEzb1n-93" value="title_id" style="shape=partialRectangle;html=1;whiteSpace=wrap;connectable=0;strokeColor=inherit;overflow=hidden;fillColor=none;top=0;left=0;bottom=0;right=0;pointerEvents=1;fontSize=19;strokeWidth=2;" vertex="1" parent="NfwS4gf-bSEiMEtEzb1n-50">
          <mxGeometry x="833" width="167" height="40" as="geometry">
            <mxRectangle width="167" height="40" as="alternateBounds" />
          </mxGeometry>
        </mxCell>
        <mxCell id="NfwS4gf-bSEiMEtEzb1n-54" value="Title" style="shape=table;startSize=30;container=1;collapsible=0;childLayout=tableLayout;strokeColor=#6c8ebf;fontSize=19;strokeWidth=2;fillColor=#dae8fc;" vertex="1" parent="WIyWlLk6GJQsqaUBKTNV-1">
          <mxGeometry x="20" y="30" width="1670" height="70" as="geometry" />
        </mxCell>
        <mxCell id="NfwS4gf-bSEiMEtEzb1n-55" value="" style="shape=tableRow;horizontal=0;startSize=0;swimlaneHead=0;swimlaneBody=0;strokeColor=inherit;top=0;left=0;bottom=0;right=0;collapsible=0;dropTarget=0;fillColor=none;points=[[0,0.5],[1,0.5]];portConstraint=eastwest;fontSize=19;strokeWidth=2;" vertex="1" parent="NfwS4gf-bSEiMEtEzb1n-54">
          <mxGeometry y="30" width="1670" height="40" as="geometry" />
        </mxCell>
        <mxCell id="NfwS4gf-bSEiMEtEzb1n-56" value="&lt;u style=&quot;font-size: 19px;&quot;&gt;title_id&lt;/u&gt;" style="shape=partialRectangle;html=1;whiteSpace=wrap;connectable=0;strokeColor=inherit;overflow=hidden;fillColor=none;top=0;left=0;bottom=0;right=0;pointerEvents=1;fontSize=19;strokeWidth=2;" vertex="1" parent="NfwS4gf-bSEiMEtEzb1n-55">
          <mxGeometry width="139" height="40" as="geometry">
            <mxRectangle width="139" height="40" as="alternateBounds" />
          </mxGeometry>
        </mxCell>
        <mxCell id="NfwS4gf-bSEiMEtEzb1n-57" value="title_name" style="shape=partialRectangle;html=1;whiteSpace=wrap;connectable=0;strokeColor=inherit;overflow=hidden;fillColor=none;top=0;left=0;bottom=0;right=0;pointerEvents=1;fontSize=19;strokeWidth=2;" vertex="1" parent="NfwS4gf-bSEiMEtEzb1n-55">
          <mxGeometry x="139" width="140" height="40" as="geometry">
            <mxRectangle width="140" height="40" as="alternateBounds" />
          </mxGeometry>
        </mxCell>
        <mxCell id="NfwS4gf-bSEiMEtEzb1n-58" value="studio" style="shape=partialRectangle;html=1;whiteSpace=wrap;connectable=0;strokeColor=inherit;overflow=hidden;fillColor=none;top=0;left=0;bottom=0;right=0;pointerEvents=1;fontSize=19;strokeWidth=2;" vertex="1" parent="NfwS4gf-bSEiMEtEzb1n-55">
          <mxGeometry x="279" width="139" height="40" as="geometry">
            <mxRectangle width="139" height="40" as="alternateBounds" />
          </mxGeometry>
        </mxCell>
        <mxCell id="NfwS4gf-bSEiMEtEzb1n-82" value="pg_rating" style="shape=partialRectangle;html=1;whiteSpace=wrap;connectable=0;strokeColor=inherit;overflow=hidden;fillColor=none;top=0;left=0;bottom=0;right=0;pointerEvents=1;fontSize=19;strokeWidth=2;" vertex="1" parent="NfwS4gf-bSEiMEtEzb1n-55">
          <mxGeometry x="418" width="138" height="40" as="geometry">
            <mxRectangle width="138" height="40" as="alternateBounds" />
          </mxGeometry>
        </mxCell>
        <mxCell id="NfwS4gf-bSEiMEtEzb1n-83" value="fss_address" style="shape=partialRectangle;html=1;whiteSpace=wrap;connectable=0;strokeColor=inherit;overflow=hidden;fillColor=none;top=0;left=0;bottom=0;right=0;pointerEvents=1;fontSize=19;strokeWidth=2;" vertex="1" parent="NfwS4gf-bSEiMEtEzb1n-55">
          <mxGeometry x="556" width="140" height="40" as="geometry">
            <mxRectangle width="140" height="40" as="alternateBounds" />
          </mxGeometry>
        </mxCell>
        <mxCell id="NfwS4gf-bSEiMEtEzb1n-84" value="rating" style="shape=partialRectangle;html=1;whiteSpace=wrap;connectable=0;strokeColor=inherit;overflow=hidden;fillColor=none;top=0;left=0;bottom=0;right=0;pointerEvents=1;fontSize=19;strokeWidth=2;" vertex="1" parent="NfwS4gf-bSEiMEtEzb1n-55">
          <mxGeometry x="696" width="139" height="40" as="geometry">
            <mxRectangle width="139" height="40" as="alternateBounds" />
          </mxGeometry>
        </mxCell>
        <mxCell id="NfwS4gf-bSEiMEtEzb1n-85" value="description" style="shape=partialRectangle;html=1;whiteSpace=wrap;connectable=0;strokeColor=inherit;overflow=hidden;fillColor=none;top=0;left=0;bottom=0;right=0;pointerEvents=1;fontSize=19;strokeWidth=2;" vertex="1" parent="NfwS4gf-bSEiMEtEzb1n-55">
          <mxGeometry x="835" width="139" height="40" as="geometry">
            <mxRectangle width="139" height="40" as="alternateBounds" />
          </mxGeometry>
        </mxCell>
        <mxCell id="NfwS4gf-bSEiMEtEzb1n-86" value="genre" style="shape=partialRectangle;html=1;whiteSpace=wrap;connectable=0;strokeColor=inherit;overflow=hidden;fillColor=none;top=0;left=0;bottom=0;right=0;pointerEvents=1;fontSize=19;strokeWidth=2;" vertex="1" parent="NfwS4gf-bSEiMEtEzb1n-55">
          <mxGeometry x="974" width="140" height="40" as="geometry">
            <mxRectangle width="140" height="40" as="alternateBounds" />
          </mxGeometry>
        </mxCell>
        <mxCell id="NfwS4gf-bSEiMEtEzb1n-87" value="image" style="shape=partialRectangle;html=1;whiteSpace=wrap;connectable=0;strokeColor=inherit;overflow=hidden;fillColor=none;top=0;left=0;bottom=0;right=0;pointerEvents=1;fontSize=19;strokeWidth=2;" vertex="1" parent="NfwS4gf-bSEiMEtEzb1n-55">
          <mxGeometry x="1114" width="139" height="40" as="geometry">
            <mxRectangle width="139" height="40" as="alternateBounds" />
          </mxGeometry>
        </mxCell>
        <mxCell id="NfwS4gf-bSEiMEtEzb1n-88" value="release_date" style="shape=partialRectangle;html=1;whiteSpace=wrap;connectable=0;strokeColor=inherit;overflow=hidden;fillColor=none;top=0;left=0;bottom=0;right=0;pointerEvents=1;fontSize=19;strokeWidth=2;" vertex="1" parent="NfwS4gf-bSEiMEtEzb1n-55">
          <mxGeometry x="1253" width="138" height="40" as="geometry">
            <mxRectangle width="138" height="40" as="alternateBounds" />
          </mxGeometry>
        </mxCell>
        <mxCell id="NfwS4gf-bSEiMEtEzb1n-89" value="title_type" style="shape=partialRectangle;html=1;whiteSpace=wrap;connectable=0;strokeColor=inherit;overflow=hidden;fillColor=none;top=0;left=0;bottom=0;right=0;pointerEvents=1;fontSize=19;strokeWidth=2;" vertex="1" parent="NfwS4gf-bSEiMEtEzb1n-55">
          <mxGeometry x="1391" width="140" height="40" as="geometry">
            <mxRectangle width="140" height="40" as="alternateBounds" />
          </mxGeometry>
        </mxCell>
        <mxCell id="NfwS4gf-bSEiMEtEzb1n-90" value="pref_id" style="shape=partialRectangle;html=1;whiteSpace=wrap;connectable=0;strokeColor=inherit;overflow=hidden;fillColor=none;top=0;left=0;bottom=0;right=0;pointerEvents=1;fontSize=19;strokeWidth=2;" vertex="1" parent="NfwS4gf-bSEiMEtEzb1n-55">
          <mxGeometry x="1531" width="139" height="40" as="geometry">
            <mxRectangle width="139" height="40" as="alternateBounds" />
          </mxGeometry>
        </mxCell>
        <mxCell id="NfwS4gf-bSEiMEtEzb1n-59" value="Preference" style="shape=table;startSize=30;container=1;collapsible=0;childLayout=tableLayout;strokeColor=#6c8ebf;fontSize=19;strokeWidth=2;fillColor=#dae8fc;" vertex="1" parent="WIyWlLk6GJQsqaUBKTNV-1">
          <mxGeometry x="20" y="840" width="340" height="70" as="geometry" />
        </mxCell>
        <mxCell id="NfwS4gf-bSEiMEtEzb1n-60" value="" style="shape=tableRow;horizontal=0;startSize=0;swimlaneHead=0;swimlaneBody=0;strokeColor=inherit;top=0;left=0;bottom=0;right=0;collapsible=0;dropTarget=0;fillColor=none;points=[[0,0.5],[1,0.5]];portConstraint=eastwest;fontSize=19;strokeWidth=2;" vertex="1" parent="NfwS4gf-bSEiMEtEzb1n-59">
          <mxGeometry y="30" width="340" height="40" as="geometry" />
        </mxCell>
        <mxCell id="NfwS4gf-bSEiMEtEzb1n-61" value="&lt;u style=&quot;font-size: 19px;&quot;&gt;pref_id&lt;/u&gt;" style="shape=partialRectangle;html=1;whiteSpace=wrap;connectable=0;strokeColor=inherit;overflow=hidden;fillColor=none;top=0;left=0;bottom=0;right=0;pointerEvents=1;fontSize=19;strokeWidth=2;" vertex="1" parent="NfwS4gf-bSEiMEtEzb1n-60">
          <mxGeometry width="113" height="40" as="geometry">
            <mxRectangle width="113" height="40" as="alternateBounds" />
          </mxGeometry>
        </mxCell>
        <mxCell id="NfwS4gf-bSEiMEtEzb1n-62" value="profile_id" style="shape=partialRectangle;html=1;whiteSpace=wrap;connectable=0;strokeColor=inherit;overflow=hidden;fillColor=none;top=0;left=0;bottom=0;right=0;pointerEvents=1;fontSize=19;strokeWidth=2;" vertex="1" parent="NfwS4gf-bSEiMEtEzb1n-60">
          <mxGeometry x="113" width="114" height="40" as="geometry">
            <mxRectangle width="114" height="40" as="alternateBounds" />
          </mxGeometry>
        </mxCell>
        <mxCell id="NfwS4gf-bSEiMEtEzb1n-63" value="" style="shape=partialRectangle;html=1;whiteSpace=wrap;connectable=0;strokeColor=inherit;overflow=hidden;fillColor=none;top=0;left=0;bottom=0;right=0;pointerEvents=1;fontSize=19;strokeWidth=2;" vertex="1" parent="NfwS4gf-bSEiMEtEzb1n-60">
          <mxGeometry x="227" width="113" height="40" as="geometry">
            <mxRectangle width="113" height="40" as="alternateBounds" />
          </mxGeometry>
        </mxCell>
        <mxCell id="NfwS4gf-bSEiMEtEzb1n-64" value="Account" style="shape=table;startSize=30;container=1;collapsible=0;childLayout=tableLayout;strokeColor=#6c8ebf;fontSize=19;strokeWidth=2;fillColor=#dae8fc;" vertex="1" parent="WIyWlLk6GJQsqaUBKTNV-1">
          <mxGeometry x="20" y="480" width="1760" height="70" as="geometry" />
        </mxCell>
        <mxCell id="NfwS4gf-bSEiMEtEzb1n-65" value="" style="shape=tableRow;horizontal=0;startSize=0;swimlaneHead=0;swimlaneBody=0;strokeColor=inherit;top=0;left=0;bottom=0;right=0;collapsible=0;dropTarget=0;fillColor=none;points=[[0,0.5],[1,0.5]];portConstraint=eastwest;fontSize=19;strokeWidth=2;" vertex="1" parent="NfwS4gf-bSEiMEtEzb1n-64">
          <mxGeometry y="30" width="1760" height="40" as="geometry" />
        </mxCell>
        <mxCell id="NfwS4gf-bSEiMEtEzb1n-66" value="&lt;u style=&quot;font-size: 19px;&quot;&gt;account_id&lt;/u&gt;" style="shape=partialRectangle;html=1;whiteSpace=wrap;connectable=0;strokeColor=inherit;overflow=hidden;fillColor=none;top=0;left=0;bottom=0;right=0;pointerEvents=1;fontSize=19;strokeWidth=2;" vertex="1" parent="NfwS4gf-bSEiMEtEzb1n-65">
          <mxGeometry width="220" height="40" as="geometry">
            <mxRectangle width="220" height="40" as="alternateBounds" />
          </mxGeometry>
        </mxCell>
        <mxCell id="NfwS4gf-bSEiMEtEzb1n-67" value="fname" style="shape=partialRectangle;html=1;whiteSpace=wrap;connectable=0;strokeColor=inherit;overflow=hidden;fillColor=none;top=0;left=0;bottom=0;right=0;pointerEvents=1;fontSize=19;strokeWidth=2;" vertex="1" parent="NfwS4gf-bSEiMEtEzb1n-65">
          <mxGeometry x="220" width="221" height="40" as="geometry">
            <mxRectangle width="221" height="40" as="alternateBounds" />
          </mxGeometry>
        </mxCell>
        <mxCell id="NfwS4gf-bSEiMEtEzb1n-68" value="sname" style="shape=partialRectangle;html=1;whiteSpace=wrap;connectable=0;strokeColor=inherit;overflow=hidden;fillColor=none;top=0;left=0;bottom=0;right=0;pointerEvents=1;fontSize=19;strokeWidth=2;" vertex="1" parent="NfwS4gf-bSEiMEtEzb1n-65">
          <mxGeometry x="441" width="219" height="40" as="geometry">
            <mxRectangle width="219" height="40" as="alternateBounds" />
          </mxGeometry>
        </mxCell>
        <mxCell id="NfwS4gf-bSEiMEtEzb1n-77" value="phone" style="shape=partialRectangle;html=1;whiteSpace=wrap;connectable=0;strokeColor=inherit;overflow=hidden;fillColor=none;top=0;left=0;bottom=0;right=0;pointerEvents=1;fontSize=19;strokeWidth=2;" vertex="1" parent="NfwS4gf-bSEiMEtEzb1n-65">
          <mxGeometry x="660" width="220" height="40" as="geometry">
            <mxRectangle width="220" height="40" as="alternateBounds" />
          </mxGeometry>
        </mxCell>
        <mxCell id="NfwS4gf-bSEiMEtEzb1n-78" value="email" style="shape=partialRectangle;html=1;whiteSpace=wrap;connectable=0;strokeColor=inherit;overflow=hidden;fillColor=none;top=0;left=0;bottom=0;right=0;pointerEvents=1;fontSize=19;strokeWidth=2;" vertex="1" parent="NfwS4gf-bSEiMEtEzb1n-65">
          <mxGeometry x="880" width="220" height="40" as="geometry">
            <mxRectangle width="220" height="40" as="alternateBounds" />
          </mxGeometry>
        </mxCell>
        <mxCell id="NfwS4gf-bSEiMEtEzb1n-79" value="password" style="shape=partialRectangle;html=1;whiteSpace=wrap;connectable=0;strokeColor=inherit;overflow=hidden;fillColor=none;top=0;left=0;bottom=0;right=0;pointerEvents=1;fontSize=19;strokeWidth=2;" vertex="1" parent="NfwS4gf-bSEiMEtEzb1n-65">
          <mxGeometry x="1100" width="220" height="40" as="geometry">
            <mxRectangle width="220" height="40" as="alternateBounds" />
          </mxGeometry>
        </mxCell>
        <mxCell id="NfwS4gf-bSEiMEtEzb1n-80" value="notif_pref" style="shape=partialRectangle;html=1;whiteSpace=wrap;connectable=0;strokeColor=inherit;overflow=hidden;fillColor=none;top=0;left=0;bottom=0;right=0;pointerEvents=1;fontSize=19;strokeWidth=2;" vertex="1" parent="NfwS4gf-bSEiMEtEzb1n-65">
          <mxGeometry x="1320" width="220" height="40" as="geometry">
            <mxRectangle width="220" height="40" as="alternateBounds" />
          </mxGeometry>
        </mxCell>
        <mxCell id="NfwS4gf-bSEiMEtEzb1n-104" value="subscription_id" style="shape=partialRectangle;html=1;whiteSpace=wrap;connectable=0;strokeColor=inherit;overflow=hidden;fillColor=none;top=0;left=0;bottom=0;right=0;pointerEvents=1;fontSize=19;strokeWidth=2;" vertex="1" parent="NfwS4gf-bSEiMEtEzb1n-65">
          <mxGeometry x="1540" width="220" height="40" as="geometry">
            <mxRectangle width="220" height="40" as="alternateBounds" />
          </mxGeometry>
        </mxCell>
        <mxCell id="NfwS4gf-bSEiMEtEzb1n-69" value="Profile" style="shape=table;startSize=30;container=1;collapsible=0;childLayout=tableLayout;strokeColor=#6c8ebf;fontSize=19;strokeWidth=2;fillColor=#dae8fc;" vertex="1" parent="WIyWlLk6GJQsqaUBKTNV-1">
          <mxGeometry x="20" y="680" width="750" height="70" as="geometry" />
        </mxCell>
        <mxCell id="NfwS4gf-bSEiMEtEzb1n-70" value="" style="shape=tableRow;horizontal=0;startSize=0;swimlaneHead=0;swimlaneBody=0;strokeColor=inherit;top=0;left=0;bottom=0;right=0;collapsible=0;dropTarget=0;fillColor=none;points=[[0,0.5],[1,0.5]];portConstraint=eastwest;fontSize=19;strokeWidth=2;" vertex="1" parent="NfwS4gf-bSEiMEtEzb1n-69">
          <mxGeometry y="30" width="750" height="40" as="geometry" />
        </mxCell>
        <mxCell id="NfwS4gf-bSEiMEtEzb1n-71" value="&lt;u style=&quot;font-size: 19px;&quot;&gt;profile_id&lt;/u&gt;" style="shape=partialRectangle;html=1;whiteSpace=wrap;connectable=0;strokeColor=inherit;overflow=hidden;fillColor=none;top=0;left=0;bottom=0;right=0;pointerEvents=1;fontSize=19;strokeWidth=2;" vertex="1" parent="NfwS4gf-bSEiMEtEzb1n-70">
          <mxGeometry width="188" height="40" as="geometry">
            <mxRectangle width="188" height="40" as="alternateBounds" />
          </mxGeometry>
        </mxCell>
        <mxCell id="NfwS4gf-bSEiMEtEzb1n-72" value="profile_age" style="shape=partialRectangle;html=1;whiteSpace=wrap;connectable=0;strokeColor=inherit;overflow=hidden;fillColor=none;top=0;left=0;bottom=0;right=0;pointerEvents=1;fontSize=19;strokeWidth=2;" vertex="1" parent="NfwS4gf-bSEiMEtEzb1n-70">
          <mxGeometry x="188" width="187" height="40" as="geometry">
            <mxRectangle width="187" height="40" as="alternateBounds" />
          </mxGeometry>
        </mxCell>
        <mxCell id="NfwS4gf-bSEiMEtEzb1n-73" value="profile_icon" style="shape=partialRectangle;html=1;whiteSpace=wrap;connectable=0;strokeColor=inherit;overflow=hidden;fillColor=none;top=0;left=0;bottom=0;right=0;pointerEvents=1;fontSize=19;strokeWidth=2;" vertex="1" parent="NfwS4gf-bSEiMEtEzb1n-70">
          <mxGeometry x="375" width="188" height="40" as="geometry">
            <mxRectangle width="188" height="40" as="alternateBounds" />
          </mxGeometry>
        </mxCell>
        <mxCell id="NfwS4gf-bSEiMEtEzb1n-81" value="account_id" style="shape=partialRectangle;html=1;whiteSpace=wrap;connectable=0;strokeColor=inherit;overflow=hidden;fillColor=none;top=0;left=0;bottom=0;right=0;pointerEvents=1;fontSize=19;strokeWidth=2;" vertex="1" parent="NfwS4gf-bSEiMEtEzb1n-70">
          <mxGeometry x="563" width="187" height="40" as="geometry">
            <mxRectangle width="187" height="40" as="alternateBounds" />
          </mxGeometry>
        </mxCell>
        <mxCell id="NfwS4gf-bSEiMEtEzb1n-94" value="Subscription_Rates" style="shape=table;startSize=30;container=1;collapsible=0;childLayout=tableLayout;strokeColor=#6c8ebf;fontSize=19;strokeWidth=2;fillColor=#dae8fc;" vertex="1" parent="WIyWlLk6GJQsqaUBKTNV-1">
          <mxGeometry x="20" y="1310" width="430" height="70" as="geometry" />
        </mxCell>
        <mxCell id="NfwS4gf-bSEiMEtEzb1n-95" value="" style="shape=tableRow;horizontal=0;startSize=0;swimlaneHead=0;swimlaneBody=0;strokeColor=inherit;top=0;left=0;bottom=0;right=0;collapsible=0;dropTarget=0;fillColor=none;points=[[0,0.5],[1,0.5]];portConstraint=eastwest;fontSize=19;strokeWidth=2;" vertex="1" parent="NfwS4gf-bSEiMEtEzb1n-94">
          <mxGeometry y="30" width="430" height="40" as="geometry" />
        </mxCell>
        <mxCell id="NfwS4gf-bSEiMEtEzb1n-96" value="sub_id" style="shape=partialRectangle;html=1;whiteSpace=wrap;connectable=0;strokeColor=inherit;overflow=hidden;fillColor=none;top=0;left=0;bottom=0;right=0;pointerEvents=1;fontSize=19;strokeWidth=2;" vertex="1" parent="NfwS4gf-bSEiMEtEzb1n-95">
          <mxGeometry width="215" height="40" as="geometry">
            <mxRectangle width="215" height="40" as="alternateBounds" />
          </mxGeometry>
        </mxCell>
        <mxCell id="NfwS4gf-bSEiMEtEzb1n-97" value="sub_rate" style="shape=partialRectangle;html=1;whiteSpace=wrap;connectable=0;strokeColor=inherit;overflow=hidden;fillColor=none;top=0;left=0;bottom=0;right=0;pointerEvents=1;fontSize=19;strokeWidth=2;" vertex="1" parent="NfwS4gf-bSEiMEtEzb1n-95">
          <mxGeometry x="215" width="215" height="40" as="geometry">
            <mxRectangle width="215" height="40" as="alternateBounds" />
          </mxGeometry>
        </mxCell>
        <mxCell id="NfwS4gf-bSEiMEtEzb1n-99" value="Studios" style="shape=table;startSize=30;container=1;collapsible=0;childLayout=tableLayout;strokeColor=#6c8ebf;fontSize=19;strokeWidth=2;fillColor=#dae8fc;" vertex="1" parent="WIyWlLk6GJQsqaUBKTNV-1">
          <mxGeometry x="20" y="1490" width="430" height="70" as="geometry" />
        </mxCell>
        <mxCell id="NfwS4gf-bSEiMEtEzb1n-100" value="" style="shape=tableRow;horizontal=0;startSize=0;swimlaneHead=0;swimlaneBody=0;strokeColor=inherit;top=0;left=0;bottom=0;right=0;collapsible=0;dropTarget=0;fillColor=none;points=[[0,0.5],[1,0.5]];portConstraint=eastwest;fontSize=19;strokeWidth=2;" vertex="1" parent="NfwS4gf-bSEiMEtEzb1n-99">
          <mxGeometry y="30" width="430" height="40" as="geometry" />
        </mxCell>
        <mxCell id="NfwS4gf-bSEiMEtEzb1n-101" value="title_id" style="shape=partialRectangle;html=1;whiteSpace=wrap;connectable=0;strokeColor=inherit;overflow=hidden;fillColor=none;top=0;left=0;bottom=0;right=0;pointerEvents=1;fontSize=19;strokeWidth=2;" vertex="1" parent="NfwS4gf-bSEiMEtEzb1n-100">
          <mxGeometry width="217" height="40" as="geometry">
            <mxRectangle width="217" height="40" as="alternateBounds" />
          </mxGeometry>
        </mxCell>
        <mxCell id="NfwS4gf-bSEiMEtEzb1n-102" value="studio" style="shape=partialRectangle;html=1;whiteSpace=wrap;connectable=0;strokeColor=inherit;overflow=hidden;fillColor=none;top=0;left=0;bottom=0;right=0;pointerEvents=1;fontSize=19;strokeWidth=2;" vertex="1" parent="NfwS4gf-bSEiMEtEzb1n-100">
          <mxGeometry x="217" width="213" height="40" as="geometry">
            <mxRectangle width="213" height="40" as="alternateBounds" />
          </mxGeometry>
        </mxCell>
        <mxCell id="NfwS4gf-bSEiMEtEzb1n-106" value="" style="endArrow=classic;html=1;rounded=0;exitX=0.879;exitY=1.018;exitDx=0;exitDy=0;exitPerimeter=0;entryX=0.061;entryY=1.057;entryDx=0;entryDy=0;entryPerimeter=0;fontSize=19;strokeWidth=2;" edge="1" parent="WIyWlLk6GJQsqaUBKTNV-1" source="NfwS4gf-bSEiMEtEzb1n-70" target="NfwS4gf-bSEiMEtEzb1n-65">
          <mxGeometry width="50" height="50" relative="1" as="geometry">
            <mxPoint x="980" y="780" as="sourcePoint" />
            <mxPoint x="140" y="600" as="targetPoint" />
            <Array as="points">
              <mxPoint x="679" y="780" />
              <mxPoint x="820" y="780" />
              <mxPoint x="820" y="600" />
              <mxPoint x="127" y="600" />
            </Array>
          </mxGeometry>
        </mxCell>
        <mxCell id="NfwS4gf-bSEiMEtEzb1n-107" value="" style="endArrow=classic;html=1;rounded=0;exitX=0.515;exitY=0.986;exitDx=0;exitDy=0;exitPerimeter=0;entryX=0.047;entryY=1.018;entryDx=0;entryDy=0;entryPerimeter=0;fontSize=19;strokeWidth=2;" edge="1" parent="WIyWlLk6GJQsqaUBKTNV-1" source="NfwS4gf-bSEiMEtEzb1n-60" target="NfwS4gf-bSEiMEtEzb1n-70">
          <mxGeometry width="50" height="50" relative="1" as="geometry">
            <mxPoint x="490" y="920" as="sourcePoint" />
            <mxPoint x="400" y="800" as="targetPoint" />
            <Array as="points">
              <mxPoint x="195" y="940" />
              <mxPoint x="400" y="940" />
              <mxPoint x="400" y="820" />
              <mxPoint x="55" y="820" />
            </Array>
          </mxGeometry>
        </mxCell>
        <mxCell id="NfwS4gf-bSEiMEtEzb1n-108" value="" style="endArrow=classic;html=1;rounded=0;exitX=0.753;exitY=1.097;exitDx=0;exitDy=0;exitPerimeter=0;entryX=0.12;entryY=1;entryDx=0;entryDy=0;entryPerimeter=0;fontSize=19;strokeWidth=2;" edge="1" parent="WIyWlLk6GJQsqaUBKTNV-1" source="NfwS4gf-bSEiMEtEzb1n-50" target="NfwS4gf-bSEiMEtEzb1n-70">
          <mxGeometry width="50" height="50" relative="1" as="geometry">
            <mxPoint x="920" y="1130" as="sourcePoint" />
            <mxPoint x="1070" y="1090" as="targetPoint" />
            <Array as="points">
              <mxPoint x="773" y="1090" />
              <mxPoint x="1090" y="1090" />
              <mxPoint x="1090" y="800" />
              <mxPoint x="110" y="800" />
            </Array>
          </mxGeometry>
        </mxCell>
        <mxCell id="NfwS4gf-bSEiMEtEzb1n-109" value="" style="endArrow=classic;html=1;rounded=0;exitX=0.921;exitY=1.097;exitDx=0;exitDy=0;exitPerimeter=0;entryX=0.013;entryY=1.037;entryDx=0;entryDy=0;entryPerimeter=0;fontSize=19;strokeWidth=2;" edge="1" parent="WIyWlLk6GJQsqaUBKTNV-1" source="NfwS4gf-bSEiMEtEzb1n-50" target="NfwS4gf-bSEiMEtEzb1n-55">
          <mxGeometry width="50" height="50" relative="1" as="geometry">
            <mxPoint x="1100" y="1170" as="sourcePoint" />
            <mxPoint x="70" y="170" as="targetPoint" />
            <Array as="points">
              <mxPoint x="941" y="1110" />
              <mxPoint x="1910" y="1110" />
              <mxPoint x="1910" y="180" />
              <mxPoint x="42" y="180" />
            </Array>
          </mxGeometry>
        </mxCell>
        <mxCell id="NfwS4gf-bSEiMEtEzb1n-110" value="" style="endArrow=classic;html=1;rounded=0;entryX=0.024;entryY=1;entryDx=0;entryDy=0;entryPerimeter=0;fontSize=19;strokeWidth=2;" edge="1" parent="WIyWlLk6GJQsqaUBKTNV-1" target="NfwS4gf-bSEiMEtEzb1n-55">
          <mxGeometry width="50" height="50" relative="1" as="geometry">
            <mxPoint x="240" y="1213" as="sourcePoint" />
            <mxPoint x="120" y="160" as="targetPoint" />
            <Array as="points">
              <mxPoint x="240" y="1240" />
              <mxPoint x="1960" y="1240" />
              <mxPoint x="1970" y="160" />
              <mxPoint x="60" y="160" />
            </Array>
          </mxGeometry>
        </mxCell>
        <mxCell id="NfwS4gf-bSEiMEtEzb1n-111" value="" style="endArrow=classic;html=1;rounded=0;exitX=0.958;exitY=1.077;exitDx=0;exitDy=0;exitPerimeter=0;entryX=0.178;entryY=0.986;entryDx=0;entryDy=0;entryPerimeter=0;fontSize=19;strokeWidth=2;" edge="1" parent="WIyWlLk6GJQsqaUBKTNV-1" source="NfwS4gf-bSEiMEtEzb1n-55" target="NfwS4gf-bSEiMEtEzb1n-60">
          <mxGeometry width="50" height="50" relative="1" as="geometry">
            <mxPoint x="1470" y="270" as="sourcePoint" />
            <mxPoint x="990" y="850" as="targetPoint" />
            <Array as="points">
              <mxPoint x="1620" y="120" />
              <mxPoint x="2030" y="120" />
              <mxPoint x="2030" y="950" />
              <mxPoint x="81" y="950" />
            </Array>
          </mxGeometry>
        </mxCell>
        <mxCell id="NfwS4gf-bSEiMEtEzb1n-112" value="" style="endArrow=classic;html=1;rounded=0;exitX=0.244;exitY=0.982;exitDx=0;exitDy=0;exitPerimeter=0;fontSize=19;strokeWidth=2;" edge="1" parent="WIyWlLk6GJQsqaUBKTNV-1" source="NfwS4gf-bSEiMEtEzb1n-95">
          <mxGeometry width="50" height="50" relative="1" as="geometry">
            <mxPoint x="280" y="1470" as="sourcePoint" />
            <mxPoint x="160" y="340" as="targetPoint" />
            <Array as="points">
              <mxPoint x="125" y="1420" />
              <mxPoint x="2080" y="1420" />
              <mxPoint x="2080" y="390" />
              <mxPoint x="160" y="390" />
            </Array>
          </mxGeometry>
        </mxCell>
        <mxCell id="NfwS4gf-bSEiMEtEzb1n-114" value="" style="endArrow=classic;html=1;rounded=0;exitX=0.939;exitY=1.057;exitDx=0;exitDy=0;exitPerimeter=0;entryX=0.059;entryY=1.109;entryDx=0;entryDy=0;entryPerimeter=0;fontSize=19;strokeWidth=2;" edge="1" parent="WIyWlLk6GJQsqaUBKTNV-1" source="NfwS4gf-bSEiMEtEzb1n-65" target="NfwS4gf-bSEiMEtEzb1n-27">
          <mxGeometry width="50" height="50" relative="1" as="geometry">
            <mxPoint x="1750" y="640" as="sourcePoint" />
            <mxPoint x="1800" y="590" as="targetPoint" />
            <Array as="points">
              <mxPoint x="1673" y="600" />
              <mxPoint x="1840" y="600" />
              <mxPoint x="1840" y="440" />
              <mxPoint x="90" y="440" />
            </Array>
          </mxGeometry>
        </mxCell>
        <mxCell id="NfwS4gf-bSEiMEtEzb1n-115" value="" style="endArrow=classic;html=1;rounded=0;exitX=0.241;exitY=1.045;exitDx=0;exitDy=0;exitPerimeter=0;entryX=0.036;entryY=1;entryDx=0;entryDy=0;entryPerimeter=0;fontSize=19;strokeWidth=2;" edge="1" parent="WIyWlLk6GJQsqaUBKTNV-1" source="NfwS4gf-bSEiMEtEzb1n-100" target="NfwS4gf-bSEiMEtEzb1n-55">
          <mxGeometry width="50" height="50" relative="1" as="geometry">
            <mxPoint x="500" y="1700" as="sourcePoint" />
            <mxPoint x="114" y="100" as="targetPoint" />
            <Array as="points">
              <mxPoint x="124" y="1620" />
              <mxPoint x="2110" y="1620" />
              <mxPoint x="2100" y="140" />
              <mxPoint x="80" y="140" />
            </Array>
          </mxGeometry>
        </mxCell>
        <mxCell id="NfwS4gf-bSEiMEtEzb1n-116" value="Movie" style="shape=table;startSize=30;container=1;collapsible=0;childLayout=tableLayout;strokeColor=#6c8ebf;fontSize=19;strokeWidth=2;fillColor=#dae8fc;" vertex="1" parent="WIyWlLk6GJQsqaUBKTNV-1">
          <mxGeometry x="20" y="1700" width="430" height="70" as="geometry" />
        </mxCell>
        <mxCell id="NfwS4gf-bSEiMEtEzb1n-117" value="" style="shape=tableRow;horizontal=0;startSize=0;swimlaneHead=0;swimlaneBody=0;strokeColor=inherit;top=0;left=0;bottom=0;right=0;collapsible=0;dropTarget=0;fillColor=none;points=[[0,0.5],[1,0.5]];portConstraint=eastwest;fontSize=19;strokeWidth=2;" vertex="1" parent="NfwS4gf-bSEiMEtEzb1n-116">
          <mxGeometry y="30" width="430" height="40" as="geometry" />
        </mxCell>
        <mxCell id="NfwS4gf-bSEiMEtEzb1n-118" value="title_id" style="shape=partialRectangle;html=1;whiteSpace=wrap;connectable=0;strokeColor=inherit;overflow=hidden;fillColor=none;top=0;left=0;bottom=0;right=0;pointerEvents=1;fontSize=19;strokeWidth=2;" vertex="1" parent="NfwS4gf-bSEiMEtEzb1n-117">
          <mxGeometry width="215" height="40" as="geometry">
            <mxRectangle width="215" height="40" as="alternateBounds" />
          </mxGeometry>
        </mxCell>
        <mxCell id="NfwS4gf-bSEiMEtEzb1n-119" value="length" style="shape=partialRectangle;html=1;whiteSpace=wrap;connectable=0;strokeColor=inherit;overflow=hidden;fillColor=none;top=0;left=0;bottom=0;right=0;pointerEvents=1;fontSize=19;strokeWidth=2;" vertex="1" parent="NfwS4gf-bSEiMEtEzb1n-117">
          <mxGeometry x="215" width="215" height="40" as="geometry">
            <mxRectangle width="215" height="40" as="alternateBounds" />
          </mxGeometry>
        </mxCell>
        <mxCell id="NfwS4gf-bSEiMEtEzb1n-130" value="series" style="shape=table;startSize=30;container=1;collapsible=0;childLayout=tableLayout;strokeColor=#6c8ebf;fontSize=19;strokeWidth=2;fillColor=#dae8fc;" vertex="1" parent="WIyWlLk6GJQsqaUBKTNV-1">
          <mxGeometry x="20" y="1850" width="615" height="80" as="geometry" />
        </mxCell>
        <mxCell id="NfwS4gf-bSEiMEtEzb1n-131" value="" style="shape=tableRow;horizontal=0;startSize=0;swimlaneHead=0;swimlaneBody=0;strokeColor=inherit;top=0;left=0;bottom=0;right=0;collapsible=0;dropTarget=0;fillColor=none;points=[[0,0.5],[1,0.5]];portConstraint=eastwest;fontSize=19;strokeWidth=2;" vertex="1" parent="NfwS4gf-bSEiMEtEzb1n-130">
          <mxGeometry y="30" width="615" height="50" as="geometry" />
        </mxCell>
        <mxCell id="NfwS4gf-bSEiMEtEzb1n-132" value="title_id" style="shape=partialRectangle;html=1;whiteSpace=wrap;connectable=0;strokeColor=inherit;overflow=hidden;fillColor=none;top=0;left=0;bottom=0;right=0;pointerEvents=1;fontSize=19;strokeWidth=2;" vertex="1" parent="NfwS4gf-bSEiMEtEzb1n-131">
          <mxGeometry width="205" height="50" as="geometry">
            <mxRectangle width="205" height="50" as="alternateBounds" />
          </mxGeometry>
        </mxCell>
        <mxCell id="NfwS4gf-bSEiMEtEzb1n-133" value="episode_num" style="shape=partialRectangle;html=1;whiteSpace=wrap;connectable=0;strokeColor=inherit;overflow=hidden;fillColor=none;top=0;left=0;bottom=0;right=0;pointerEvents=1;fontSize=19;strokeWidth=2;" vertex="1" parent="NfwS4gf-bSEiMEtEzb1n-131">
          <mxGeometry x="205" width="205" height="50" as="geometry">
            <mxRectangle width="205" height="50" as="alternateBounds" />
          </mxGeometry>
        </mxCell>
        <mxCell id="NfwS4gf-bSEiMEtEzb1n-134" value="season_num" style="shape=partialRectangle;html=1;whiteSpace=wrap;connectable=0;strokeColor=inherit;overflow=hidden;fillColor=none;top=0;left=0;bottom=0;right=0;pointerEvents=1;fontSize=19;strokeWidth=2;" vertex="1" parent="NfwS4gf-bSEiMEtEzb1n-131">
          <mxGeometry x="410" width="205" height="50" as="geometry">
            <mxRectangle width="205" height="50" as="alternateBounds" />
          </mxGeometry>
        </mxCell>
        <mxCell id="NfwS4gf-bSEiMEtEzb1n-136" value="" style="endArrow=none;html=1;rounded=0;fontSize=19;strokeWidth=2;" edge="1" parent="WIyWlLk6GJQsqaUBKTNV-1">
          <mxGeometry width="50" height="50" relative="1" as="geometry">
            <mxPoint x="120" y="1770" as="sourcePoint" />
            <mxPoint x="2110" y="1620" as="targetPoint" />
            <Array as="points">
              <mxPoint x="120" y="1800" />
              <mxPoint x="2110" y="1800" />
            </Array>
          </mxGeometry>
        </mxCell>
        <mxCell id="NfwS4gf-bSEiMEtEzb1n-137" value="" style="endArrow=none;html=1;rounded=0;exitX=0.166;exitY=1.081;exitDx=0;exitDy=0;exitPerimeter=0;fontSize=19;strokeWidth=2;" edge="1" parent="WIyWlLk6GJQsqaUBKTNV-1" source="NfwS4gf-bSEiMEtEzb1n-131">
          <mxGeometry width="50" height="50" relative="1" as="geometry">
            <mxPoint x="150" y="2070" as="sourcePoint" />
            <mxPoint x="2110" y="1800" as="targetPoint" />
            <Array as="points">
              <mxPoint x="122" y="1980" />
              <mxPoint x="2110" y="1980" />
            </Array>
          </mxGeometry>
        </mxCell>
        <mxCell id="NfwS4gf-bSEiMEtEzb1n-138" value="Credits" style="shape=table;startSize=30;container=1;collapsible=0;childLayout=tableLayout;strokeColor=#6c8ebf;fontSize=19;strokeWidth=2;fillColor=#dae8fc;" vertex="1" parent="WIyWlLk6GJQsqaUBKTNV-1">
          <mxGeometry x="20" y="2040" width="410" height="70" as="geometry" />
        </mxCell>
        <mxCell id="NfwS4gf-bSEiMEtEzb1n-139" value="" style="shape=tableRow;horizontal=0;startSize=0;swimlaneHead=0;swimlaneBody=0;strokeColor=inherit;top=0;left=0;bottom=0;right=0;collapsible=0;dropTarget=0;fillColor=none;points=[[0,0.5],[1,0.5]];portConstraint=eastwest;fontSize=19;strokeWidth=2;" vertex="1" parent="NfwS4gf-bSEiMEtEzb1n-138">
          <mxGeometry y="30" width="410" height="40" as="geometry" />
        </mxCell>
        <mxCell id="NfwS4gf-bSEiMEtEzb1n-140" value="&lt;u&gt;credit_id&lt;/u&gt;" style="shape=partialRectangle;html=1;whiteSpace=wrap;connectable=0;strokeColor=inherit;overflow=hidden;fillColor=none;top=0;left=0;bottom=0;right=0;pointerEvents=1;fontSize=19;strokeWidth=2;" vertex="1" parent="NfwS4gf-bSEiMEtEzb1n-139">
          <mxGeometry width="205" height="40" as="geometry">
            <mxRectangle width="205" height="40" as="alternateBounds" />
          </mxGeometry>
        </mxCell>
        <mxCell id="NfwS4gf-bSEiMEtEzb1n-141" value="title_id" style="shape=partialRectangle;html=1;whiteSpace=wrap;connectable=0;strokeColor=inherit;overflow=hidden;fillColor=none;top=0;left=0;bottom=0;right=0;pointerEvents=1;fontSize=19;strokeWidth=2;" vertex="1" parent="NfwS4gf-bSEiMEtEzb1n-139">
          <mxGeometry x="205" width="205" height="40" as="geometry">
            <mxRectangle width="205" height="40" as="alternateBounds" />
          </mxGeometry>
        </mxCell>
        <mxCell id="NfwS4gf-bSEiMEtEzb1n-142" value="Cast" style="shape=table;startSize=30;container=1;collapsible=0;childLayout=tableLayout;strokeColor=#6c8ebf;fontSize=19;strokeWidth=2;fillColor=#dae8fc;" vertex="1" parent="WIyWlLk6GJQsqaUBKTNV-1">
          <mxGeometry x="20" y="2200" width="970" height="70" as="geometry" />
        </mxCell>
        <mxCell id="NfwS4gf-bSEiMEtEzb1n-143" value="" style="shape=tableRow;horizontal=0;startSize=0;swimlaneHead=0;swimlaneBody=0;strokeColor=inherit;top=0;left=0;bottom=0;right=0;collapsible=0;dropTarget=0;fillColor=none;points=[[0,0.5],[1,0.5]];portConstraint=eastwest;fontSize=19;strokeWidth=2;" vertex="1" parent="NfwS4gf-bSEiMEtEzb1n-142">
          <mxGeometry y="30" width="970" height="40" as="geometry" />
        </mxCell>
        <mxCell id="NfwS4gf-bSEiMEtEzb1n-144" value="&lt;u&gt;cast_id&lt;/u&gt;" style="shape=partialRectangle;html=1;whiteSpace=wrap;connectable=0;strokeColor=inherit;overflow=hidden;fillColor=none;top=0;left=0;bottom=0;right=0;pointerEvents=1;fontSize=19;strokeWidth=2;" vertex="1" parent="NfwS4gf-bSEiMEtEzb1n-143">
          <mxGeometry width="139" height="40" as="geometry">
            <mxRectangle width="139" height="40" as="alternateBounds" />
          </mxGeometry>
        </mxCell>
        <mxCell id="NfwS4gf-bSEiMEtEzb1n-145" value="credit_id" style="shape=partialRectangle;html=1;whiteSpace=wrap;connectable=0;strokeColor=inherit;overflow=hidden;fillColor=none;top=0;left=0;bottom=0;right=0;pointerEvents=1;fontSize=19;strokeWidth=2;" vertex="1" parent="NfwS4gf-bSEiMEtEzb1n-143">
          <mxGeometry x="139" width="138" height="40" as="geometry">
            <mxRectangle width="138" height="40" as="alternateBounds" />
          </mxGeometry>
        </mxCell>
        <mxCell id="NfwS4gf-bSEiMEtEzb1n-146" value="role" style="shape=partialRectangle;html=1;whiteSpace=wrap;connectable=0;strokeColor=inherit;overflow=hidden;fillColor=none;top=0;left=0;bottom=0;right=0;pointerEvents=1;fontSize=19;strokeWidth=2;" vertex="1" parent="NfwS4gf-bSEiMEtEzb1n-143">
          <mxGeometry x="277" width="139" height="40" as="geometry">
            <mxRectangle width="139" height="40" as="alternateBounds" />
          </mxGeometry>
        </mxCell>
        <mxCell id="NfwS4gf-bSEiMEtEzb1n-147" value="sname" style="shape=partialRectangle;html=1;whiteSpace=wrap;connectable=0;strokeColor=inherit;overflow=hidden;fillColor=none;top=0;left=0;bottom=0;right=0;pointerEvents=1;fontSize=19;strokeWidth=2;" vertex="1" parent="NfwS4gf-bSEiMEtEzb1n-143">
          <mxGeometry x="416" width="138" height="40" as="geometry">
            <mxRectangle width="138" height="40" as="alternateBounds" />
          </mxGeometry>
        </mxCell>
        <mxCell id="NfwS4gf-bSEiMEtEzb1n-148" value="fname" style="shape=partialRectangle;html=1;whiteSpace=wrap;connectable=0;strokeColor=inherit;overflow=hidden;fillColor=none;top=0;left=0;bottom=0;right=0;pointerEvents=1;fontSize=19;strokeWidth=2;" vertex="1" parent="NfwS4gf-bSEiMEtEzb1n-143">
          <mxGeometry x="554" width="139" height="40" as="geometry">
            <mxRectangle width="139" height="40" as="alternateBounds" />
          </mxGeometry>
        </mxCell>
        <mxCell id="NfwS4gf-bSEiMEtEzb1n-149" value="biography" style="shape=partialRectangle;html=1;whiteSpace=wrap;connectable=0;strokeColor=inherit;overflow=hidden;fillColor=none;top=0;left=0;bottom=0;right=0;pointerEvents=1;fontSize=19;strokeWidth=2;" vertex="1" parent="NfwS4gf-bSEiMEtEzb1n-143">
          <mxGeometry x="693" width="138" height="40" as="geometry">
            <mxRectangle width="138" height="40" as="alternateBounds" />
          </mxGeometry>
        </mxCell>
        <mxCell id="NfwS4gf-bSEiMEtEzb1n-150" value="DOB" style="shape=partialRectangle;html=1;whiteSpace=wrap;connectable=0;strokeColor=inherit;overflow=hidden;fillColor=none;top=0;left=0;bottom=0;right=0;pointerEvents=1;fontSize=19;strokeWidth=2;" vertex="1" parent="NfwS4gf-bSEiMEtEzb1n-143">
          <mxGeometry x="831" width="139" height="40" as="geometry">
            <mxRectangle width="139" height="40" as="alternateBounds" />
          </mxGeometry>
        </mxCell>
        <mxCell id="NfwS4gf-bSEiMEtEzb1n-151" value="Crew" style="shape=table;startSize=30;container=1;collapsible=0;childLayout=tableLayout;strokeColor=#6c8ebf;fontSize=19;strokeWidth=2;fillColor=#dae8fc;" vertex="1" parent="WIyWlLk6GJQsqaUBKTNV-1">
          <mxGeometry x="20" y="2338" width="1160" height="70" as="geometry" />
        </mxCell>
        <mxCell id="NfwS4gf-bSEiMEtEzb1n-152" value="" style="shape=tableRow;horizontal=0;startSize=0;swimlaneHead=0;swimlaneBody=0;strokeColor=inherit;top=0;left=0;bottom=0;right=0;collapsible=0;dropTarget=0;fillColor=none;points=[[0,0.5],[1,0.5]];portConstraint=eastwest;fontSize=19;strokeWidth=2;" vertex="1" parent="NfwS4gf-bSEiMEtEzb1n-151">
          <mxGeometry y="30" width="1160" height="40" as="geometry" />
        </mxCell>
        <mxCell id="NfwS4gf-bSEiMEtEzb1n-153" value="&lt;u&gt;crew_id&lt;/u&gt;" style="shape=partialRectangle;html=1;whiteSpace=wrap;connectable=0;strokeColor=inherit;overflow=hidden;fillColor=none;top=0;left=0;bottom=0;right=0;pointerEvents=1;fontSize=19;strokeWidth=2;" vertex="1" parent="NfwS4gf-bSEiMEtEzb1n-152">
          <mxGeometry width="129" height="40" as="geometry">
            <mxRectangle width="129" height="40" as="alternateBounds" />
          </mxGeometry>
        </mxCell>
        <mxCell id="NfwS4gf-bSEiMEtEzb1n-154" value="credit_id" style="shape=partialRectangle;html=1;whiteSpace=wrap;connectable=0;strokeColor=inherit;overflow=hidden;fillColor=none;top=0;left=0;bottom=0;right=0;pointerEvents=1;fontSize=19;strokeWidth=2;" vertex="1" parent="NfwS4gf-bSEiMEtEzb1n-152">
          <mxGeometry x="129" width="129" height="40" as="geometry">
            <mxRectangle width="129" height="40" as="alternateBounds" />
          </mxGeometry>
        </mxCell>
        <mxCell id="NfwS4gf-bSEiMEtEzb1n-155" value="sname" style="shape=partialRectangle;html=1;whiteSpace=wrap;connectable=0;strokeColor=inherit;overflow=hidden;fillColor=none;top=0;left=0;bottom=0;right=0;pointerEvents=1;fontSize=19;strokeWidth=2;" vertex="1" parent="NfwS4gf-bSEiMEtEzb1n-152">
          <mxGeometry x="258" width="129" height="40" as="geometry">
            <mxRectangle width="129" height="40" as="alternateBounds" />
          </mxGeometry>
        </mxCell>
        <mxCell id="NfwS4gf-bSEiMEtEzb1n-156" value="fname" style="shape=partialRectangle;html=1;whiteSpace=wrap;connectable=0;strokeColor=inherit;overflow=hidden;fillColor=none;top=0;left=0;bottom=0;right=0;pointerEvents=1;fontSize=19;strokeWidth=2;" vertex="1" parent="NfwS4gf-bSEiMEtEzb1n-152">
          <mxGeometry x="387" width="129" height="40" as="geometry">
            <mxRectangle width="129" height="40" as="alternateBounds" />
          </mxGeometry>
        </mxCell>
        <mxCell id="NfwS4gf-bSEiMEtEzb1n-157" value="job_title" style="shape=partialRectangle;html=1;whiteSpace=wrap;connectable=0;strokeColor=inherit;overflow=hidden;fillColor=none;top=0;left=0;bottom=0;right=0;pointerEvents=1;fontSize=19;strokeWidth=2;" vertex="1" parent="NfwS4gf-bSEiMEtEzb1n-152">
          <mxGeometry x="516" width="128" height="40" as="geometry">
            <mxRectangle width="128" height="40" as="alternateBounds" />
          </mxGeometry>
        </mxCell>
        <mxCell id="NfwS4gf-bSEiMEtEzb1n-158" value="biography" style="shape=partialRectangle;html=1;whiteSpace=wrap;connectable=0;strokeColor=inherit;overflow=hidden;fillColor=none;top=0;left=0;bottom=0;right=0;pointerEvents=1;fontSize=19;strokeWidth=2;" vertex="1" parent="NfwS4gf-bSEiMEtEzb1n-152">
          <mxGeometry x="644" width="129" height="40" as="geometry">
            <mxRectangle width="129" height="40" as="alternateBounds" />
          </mxGeometry>
        </mxCell>
        <mxCell id="NfwS4gf-bSEiMEtEzb1n-159" value="department" style="shape=partialRectangle;html=1;whiteSpace=wrap;connectable=0;strokeColor=inherit;overflow=hidden;fillColor=none;top=0;left=0;bottom=0;right=0;pointerEvents=1;fontSize=19;strokeWidth=2;" vertex="1" parent="NfwS4gf-bSEiMEtEzb1n-152">
          <mxGeometry x="773" width="129" height="40" as="geometry">
            <mxRectangle width="129" height="40" as="alternateBounds" />
          </mxGeometry>
        </mxCell>
        <mxCell id="NfwS4gf-bSEiMEtEzb1n-160" value="credit_count" style="shape=partialRectangle;html=1;whiteSpace=wrap;connectable=0;strokeColor=inherit;overflow=hidden;fillColor=none;top=0;left=0;bottom=0;right=0;pointerEvents=1;fontSize=19;strokeWidth=2;" vertex="1" parent="NfwS4gf-bSEiMEtEzb1n-152">
          <mxGeometry x="902" width="129" height="40" as="geometry">
            <mxRectangle width="129" height="40" as="alternateBounds" />
          </mxGeometry>
        </mxCell>
        <mxCell id="NfwS4gf-bSEiMEtEzb1n-161" value="DOB" style="shape=partialRectangle;html=1;whiteSpace=wrap;connectable=0;strokeColor=inherit;overflow=hidden;fillColor=none;top=0;left=0;bottom=0;right=0;pointerEvents=1;fontSize=19;strokeWidth=2;" vertex="1" parent="NfwS4gf-bSEiMEtEzb1n-152">
          <mxGeometry x="1031" width="129" height="40" as="geometry">
            <mxRectangle width="129" height="40" as="alternateBounds" />
          </mxGeometry>
        </mxCell>
        <mxCell id="NfwS4gf-bSEiMEtEzb1n-162" value="" style="endArrow=classic;html=1;rounded=0;exitX=0.214;exitY=1.046;exitDx=0;exitDy=0;exitPerimeter=0;entryX=0.348;entryY=1.092;entryDx=0;entryDy=0;entryPerimeter=0;fontSize=19;strokeWidth=2;" edge="1" parent="WIyWlLk6GJQsqaUBKTNV-1" source="NfwS4gf-bSEiMEtEzb1n-143" target="NfwS4gf-bSEiMEtEzb1n-139">
          <mxGeometry width="50" height="50" relative="1" as="geometry">
            <mxPoint x="1020" y="2280" as="sourcePoint" />
            <mxPoint x="1070" y="2230" as="targetPoint" />
            <Array as="points">
              <mxPoint x="228" y="2300" />
              <mxPoint x="1040" y="2290" />
              <mxPoint x="1040" y="2150" />
              <mxPoint x="163" y="2150" />
            </Array>
          </mxGeometry>
        </mxCell>
        <mxCell id="NfwS4gf-bSEiMEtEzb1n-163" value="" style="endArrow=classic;html=1;rounded=0;exitX=0.166;exitY=1.096;exitDx=0;exitDy=0;exitPerimeter=0;entryX=0.177;entryY=1.139;entryDx=0;entryDy=0;entryPerimeter=0;fontSize=19;strokeWidth=2;" edge="1" parent="WIyWlLk6GJQsqaUBKTNV-1" source="NfwS4gf-bSEiMEtEzb1n-152" target="NfwS4gf-bSEiMEtEzb1n-139">
          <mxGeometry width="50" height="50" relative="1" as="geometry">
            <mxPoint x="1250" y="2440" as="sourcePoint" />
            <mxPoint x="1300" y="2390" as="targetPoint" />
            <Array as="points">
              <mxPoint x="213" y="2460" />
              <mxPoint x="1270" y="2460" />
              <mxPoint x="1270" y="2170" />
              <mxPoint x="93" y="2170" />
            </Array>
          </mxGeometry>
        </mxCell>
        <mxCell id="NfwS4gf-bSEiMEtEzb1n-164" value="" style="endArrow=none;html=1;rounded=0;exitX=0.748;exitY=1.065;exitDx=0;exitDy=0;exitPerimeter=0;fontSize=19;strokeWidth=2;" edge="1" parent="WIyWlLk6GJQsqaUBKTNV-1" source="NfwS4gf-bSEiMEtEzb1n-139">
          <mxGeometry width="50" height="50" relative="1" as="geometry">
            <mxPoint x="1780" y="2150" as="sourcePoint" />
            <mxPoint x="2110" y="1980" as="targetPoint" />
            <Array as="points">
              <mxPoint x="327" y="2140" />
              <mxPoint x="2110" y="2130" />
            </Array>
          </mxGeometry>
        </mxCell>
        <mxCell id="NfwS4gf-bSEiMEtEzb1n-165" value="" style="endArrow=classic;html=1;rounded=0;entryX=0.051;entryY=1.079;entryDx=0;entryDy=0;entryPerimeter=0;fontSize=19;strokeWidth=2;" edge="1" parent="WIyWlLk6GJQsqaUBKTNV-1" target="NfwS4gf-bSEiMEtEzb1n-55">
          <mxGeometry width="50" height="50" relative="1" as="geometry">
            <mxPoint x="105" y="140" as="sourcePoint" />
            <mxPoint x="230" y="120" as="targetPoint" />
          </mxGeometry>
        </mxCell>
        <mxCell id="NfwS4gf-bSEiMEtEzb1n-166" value="" style="endArrow=classic;html=1;rounded=0;entryX=0.064;entryY=1.079;entryDx=0;entryDy=0;entryPerimeter=0;fontSize=19;strokeWidth=2;" edge="1" parent="WIyWlLk6GJQsqaUBKTNV-1" target="NfwS4gf-bSEiMEtEzb1n-55">
          <mxGeometry width="50" height="50" relative="1" as="geometry">
            <mxPoint x="127" y="140" as="sourcePoint" />
            <mxPoint x="220" y="120" as="targetPoint" />
          </mxGeometry>
        </mxCell>
        <mxCell id="NfwS4gf-bSEiMEtEzb1n-167" value="" style="endArrow=classic;html=1;rounded=0;entryX=0.076;entryY=1.032;entryDx=0;entryDy=0;entryPerimeter=0;fontSize=19;strokeWidth=2;" edge="1" parent="WIyWlLk6GJQsqaUBKTNV-1" target="NfwS4gf-bSEiMEtEzb1n-55">
          <mxGeometry width="50" height="50" relative="1" as="geometry">
            <mxPoint x="147" y="140" as="sourcePoint" />
            <mxPoint x="230" y="130" as="targetPoint" />
          </mxGeometry>
        </mxCell>
      </root>
    </mxGraphModel>
  </diagram>
</mxfile>
